# xmcd
#
# Track frame offsets:
#	150
#	32900
#	55770
#	81469
#	97196
#	126351
#	150761
#	174922
#	197534
#
# Disc length: 3111 seconds
#
# Revision: 2
# Processed by: cddbd v1.5.2PL0 Copyright (c) Steve Scherf et al.
# Submitted via: EZCDDA 4.3.2
#
DISCID=6d0c2509
DTITLE=Daylight Dies - Lost To The Living
DYEAR=1900
DGENRE=
TTITLE0=Cathedral
TTITLE1=A Portrait In White
TTITLE2=A Subtle Violence
TTITLE3=And A Slow Surrender
TTITLE4=At A Loss
TTITLE5=Woke Up Lost
TTITLE6=Descending
TTITLE7=Last Alone
TTITLE8=The Morning Light
EXTD=
EXTT0=
EXTT1=
EXTT2=
EXTT3=
EXTT4=
EXTT5=
EXTT6=
EXTT7=
EXTT8=
PLAYORDER=
